<?xml version="1.0" encoding="UTF-8" standalone="no"?>
<svg
   xmlns:dc="http://purl.org/dc/elements/1.1/"
   xmlns:cc="http://creativecommons.org/ns#"
   xmlns:rdf="http://www.w3.org/1999/02/22-rdf-syntax-ns#"
   xmlns:svg="http://www.w3.org/2000/svg"
   xmlns="http://www.w3.org/2000/svg"
   xmlns:sodipodi="http://sodipodi.sourceforge.net/DTD/sodipodi-0.dtd"
   xmlns:inkscape="http://www.inkscape.org/namespaces/inkscape"
   width="1322.9167mm"
   height="1322.9166mm"
   viewBox="0 0 1322.9168 1322.9166"
   version="1.1"
   id="svg8"
   inkscape:version="1.0.1 (3bc2e813f5, 2020-09-07)"
   sodipodi:docname="logo.svg"
   inkscape:export-filename="/home/mj/Coding/sh_react_2/public/logo192.png"
   inkscape:export-xdpi="3.6866777"
   inkscape:export-ydpi="3.6866777">
  <defs
     id="defs2" />
  <sodipodi:namedview
     id="base"
     pagecolor="#dad7bb"
     bordercolor="#666666"
     borderopacity="1.0"
     inkscape:pageopacity="0"
     inkscape:pageshadow="2"
     inkscape:zoom="0.04375"
     inkscape:cx="1569.9232"
     inkscape:cy="4115.8404"
     inkscape:document-units="px"
     inkscape:current-layer="g3548"
     inkscape:document-rotation="0"
     showgrid="false"
     showborder="false"
     showguides="true"
     inkscape:guide-bbox="true"
     inkscape:snap-nodes="false"
     inkscape:window-width="1920"
     inkscape:window-height="1011"
     inkscape:window-x="0"
     inkscape:window-y="0"
     inkscape:window-maximized="1">
    <sodipodi:guide
       position="2369.0915,-171.91449"
       orientation="0,-1"
       id="guide1464" />
    <sodipodi:guide
       position="2369.0915,-137.97049"
       orientation="1,0"
       id="guide1468" />
  </sodipodi:namedview>
  <metadata
     id="metadata5">
    <rdf:RDF>
      <cc:Work
         rdf:about="">
        <dc:format>image/svg+xml</dc:format>
        <dc:type
           rdf:resource="http://purl.org/dc/dcmitype/StillImage" />
        <dc:title></dc:title>
      </cc:Work>
    </rdf:RDF>
  </metadata>
  <g
     inkscape:label="Layer 1"
     inkscape:groupmode="layer"
     id="layer1"
     transform="translate(2263.536,1288.632)">
    <g
       id="g3548"
       transform="matrix(7.3208143,0,0,7.3208143,-697.56183,-1451.301)"
       inkscape:export-xdpi="4.7022552"
       inkscape:export-ydpi="4.7022552">
      <g
         id="g846"
         inkscape:export-filename="/home/mj/Coding/sh_react_2/public/logo192.png"
         inkscape:export-xdpi="4.7022552"
         inkscape:export-ydpi="4.7022552"
         transform="matrix(1.132327,0,0,1.132327,27.222763,0.29275833)">
        <path
           id="path1572"
           style="fill:#ffffff;stroke:#000000;stroke-width:5.26686;stroke-linecap:round;stroke-linejoin:round;stroke-miterlimit:4;stroke-dasharray:none;stroke-opacity:1;paint-order:markers fill stroke"
           d="m -116.71323,56.971894 a 30.000487,30.990497 0 0 0 -28.71195,22.177475 25.21368,25.12563 0 0 0 -16.59428,-6.2089 25.21368,25.12563 0 0 0 -25.04854,22.252826 c -8.43443,3.74762 -14.28873,12.184635 -14.28873,22.040135 0,13.35839 10.75431,24.11269 24.11269,24.11269 h 88.17499 c 13.358388,0 24.112681,-10.7543 24.112681,-24.11269 0,-12.69342 -9.710505,-23.034255 -22.138378,-24.032445 a 30.000487,30.990497 0 0 0 0.431788,-5.238592 30.000487,30.990497 0 0 0 -30.000381,-30.990499 30.000487,30.990497 0 0 0 -0.0499,0 z" />
        <path
           id="path1466"
           style="fill:#ffffff;stroke:#000000;stroke-width:0.546387;stroke-linecap:round;stroke-linejoin:round;stroke-miterlimit:4;stroke-dasharray:none;paint-order:markers fill stroke"
           d="m -123.08813,70.507663 -30.54697,30.546977 v 33.94418 h 23.89156 v -14.61306 c 0,-3.68712 2.9683,-6.65541 6.65541,-6.65541 3.68711,0 6.65541,2.96829 6.65541,6.65541 v 14.61306 h 23.891562 v -33.94418 z m -24.12773,37.847307 h 5.80637 v 5.80584 h -5.80637 z m 6.68693,0 h 5.80585 v 5.80584 h -5.80585 z m 29.07575,0 h 5.80584 v 5.80584 h -5.80584 z m 6.68641,0 h 5.806366 v 5.80584 h -5.806366 z m -42.44909,6.68641 h 5.80637 v 5.80636 h -5.80637 z m 6.68693,0 h 5.80585 v 5.80636 h -5.80585 z m 29.07575,0 h 5.80584 v 5.80636 h -5.80584 z m 6.68641,0 h 5.806366 v 5.80636 h -5.806366 z" />
      </g>
    </g>
    <path
       id="path1570"
       style="fill:none;fill-opacity:1;stroke:#000000;stroke-width:10.5833;stroke-linecap:round;stroke-linejoin:round;stroke-miterlimit:4;stroke-dasharray:none;stroke-opacity:1;paint-order:markers fill stroke"
       d="m -534.16903,-258.08291 c -0.76723,6e-5 -1.53438,0.01 -2.30116,0.03 -30.92071,0.80446 -57.66074,17.50009 -66.18461,41.32358 -6.01104,-1.92802 -12.30136,-2.91075 -18.63246,-2.91094 -32.78241,1.3e-4 -59.35769,25.77977 -59.35762,57.58047 -9e-5,13.56149 4.93424,26.68785 13.93352,37.06595 -6.15392,7.17119 -9.86554,16.50595 -9.86554,26.73997 0,22.72711 18.29676,41.02334 41.02386,41.02334 h 164.67005 c 0.57127,0 1.13883,-0.0148 1.70429,-0.0377 0.20344,-5.3e-4 0.40688,-0.002 0.61029,-0.004 42.37244,-0.42199 76.48094,-32.18138 76.48112,-71.21336 l -0.0729,-3.08199 c -1.68395,-35.8073 -31.99453,-64.8833 -70.7683,-67.88577 0.0175,-0.51612 0.0262,-1.03242 0.0265,-1.54874 l -0.0666,-2.47013 c -1.65144,-30.53913 -33.0419,-54.6156 -71.20044,-54.61068 z"
       sodipodi:nodetypes="scccccssscccccccs" />
  </g>
</svg>
